<svg width="24" height="24" viewBox="0 0 24 24" fill="none" xmlns="http://www.w3.org/2000/svg">
<path d="M10.7517 20.923L10.7506 20.9221C7.64496 18.2364 5.12969 16.0596 3.3818 14.0216C1.64124 11.9922 0.75 10.199 0.75 8.29428C0.75 5.21682 3.2843 2.75 6.6 2.75C8.47388 2.75 10.2745 3.5855 11.4406 4.89136L12 5.51788L12.5594 4.89136C13.7255 3.5855 15.5261 2.75 17.4 2.75C20.7157 2.75 23.25 5.21682 23.25 8.29428C23.25 10.199 22.3588 11.9922 20.618 14.0232C18.871 16.0616 16.3576 18.2398 13.2544 20.9292L13.2504 20.9326L13.2488 20.934L12.0019 22.0084L10.7517 20.923Z" stroke="white" stroke-width="1.5"/>
</svg>
