<svg width="24" height="24" viewBox="0 0 24 24" fill="none" xmlns="http://www.w3.org/2000/svg">
<path d="M18 15.3865C17.2429 15.3865 16.5534 15.6227 15.9807 16.0063L9.73374 12.3557C9.74389 12.2542 9.75 12.1488 9.75 12.0402C9.75 11.9313 9.74388 11.8258 9.7337 11.7242L15.8954 8.11767C16.4929 8.52797 17.2136 8.7741 18 8.7741C20.077 8.7741 21.75 7.09009 21.75 5.01205C21.75 2.934 20.077 1.25 18 1.25C15.923 1.25 14.25 2.934 14.25 5.01205C14.25 5.12086 14.2561 5.22638 14.2663 5.32796L8.10458 8.93454C7.50713 8.52424 6.78642 8.27811 6 8.27811C3.92296 8.27811 2.25 9.96212 2.25 12.0402C2.25 14.1182 3.92296 15.8022 6 15.8022C6.78622 15.8022 7.50677 15.5562 8.10413 15.1461L14.3406 18.8045C14.3337 18.8914 14.33 18.9794 14.33 19.0683C14.33 21.0961 15.973 22.75 18 22.75C20.027 22.75 21.67 21.0961 21.67 19.0683C21.67 17.0404 20.027 15.3865 18 15.3865Z" stroke="#F5F5F5" stroke-width="1.5"/>
</svg>
