<svg width="12" height="12" viewBox="0 0 12 12" fill="none" xmlns="http://www.w3.org/2000/svg">
<path d="M5.62169 9.67834L5.62059 9.67739C4.05996 8.32777 2.82719 7.25966 1.97555 6.26668C1.13124 5.28225 0.75 4.47039 0.75 3.64714C0.75 2.33208 1.83229 1.25 3.3 1.25C4.12988 1.25 4.92854 1.62202 5.44057 2.19545L6 2.82197L6.55943 2.19545C7.07146 1.62202 7.87012 1.25 8.7 1.25C10.1677 1.25 11.25 2.33208 11.25 3.64714C11.25 4.4704 10.8688 5.28229 10.0243 6.26758C9.1726 7.2613 7.94 8.33064 6.37955 9.68299C6.3793 9.68321 6.37906 9.68342 6.37881 9.68364L6.00187 10.0084L5.62169 9.67834Z" fill="#252525" stroke="#252525" stroke-width="1.5"/>
</svg>
