<svg width="24" height="24" viewBox="0 0 24 24" fill="none" xmlns="http://www.w3.org/2000/svg">
<rect width="24" height="24" fill="#F5F5F5"/>
<path d="M11.6607 4C13.2266 4 14.6749 4.30476 16.0056 4.91427C17.3363 5.52379 18.3883 6.35261 19.1615 7.40072C19.9348 8.44879 20.3214 9.59204 20.3214 10.8304C20.3214 12.0688 19.9348 13.2136 19.1615 14.265C18.3883 15.3163 17.3379 16.1468 16.0104 16.7563C14.6829 17.3658 13.233 17.6705 11.6607 17.6705C11.1645 17.6705 10.6522 17.635 10.1238 17.5641C7.82975 19.1572 6.60864 19.9635 6.46043 19.9828C6.38954 20.0086 6.32186 20.0054 6.25743 19.9731C6.23164 19.9538 6.21232 19.928 6.19943 19.8957C6.18654 19.8635 6.18011 19.8345 6.18011 19.8086V19.77C6.21879 19.5184 6.51197 18.4703 7.05972 16.6256C5.81602 16.0065 4.82848 15.1857 4.09709 14.1634C3.3657 13.1411 3 12.0301 3 10.8304C3 9.59204 3.38664 8.44879 4.15992 7.40072C4.9332 6.35261 5.98518 5.52379 7.31586 4.91427C8.64654 4.30476 10.0948 4 11.6607 4Z" fill="#252525"/>
</svg>
